<svg id="Layer_5" enable-background="new 0 0 64 64" height="512" viewBox="0 0 64 64" width="512" xmlns="http://www.w3.org/2000/svg" xmlns:xlink="http://www.w3.org/1999/xlink"><linearGradient id="SVGID_1_" gradientUnits="userSpaceOnUse" x1="32" x2="32" y1="63" y2=".835"><stop offset="0" stop-color="#9f2fff"/><stop offset="1" stop-color="#0bb1d3"/></linearGradient><path d="m53 49h-2.697l-1.236-.824c-.815-.543-1.726-.895-2.678-1.061 1.677-1.966 2.611-4.456 2.611-7.115 0-6.065-4.935-11-11-11s-11 4.935-11 11c0 2.919 1.133 5.63 3.133 7.67-.685.551-1.133 1.385-1.133 2.33 0 .422.069.829.17 1.228l-3.458-4.612c-.759-1.012-1.968-1.616-3.233-1.616h-.438c-2.228 0-4.041 1.813-4.041 4.041 0 .834.253 1.636.73 2.317l4.062 5.803c1.683 2.404 4.439 3.839 7.373 3.839h22.835v2h10v-16h-10zm-15-18c4.962 0 9 4.037 9 9 0 2.753-1.228 5.282-3.363 7h-4.637v-2h3v-3c0-1.654-1.346-3-3-3h-2c-.551 0-1-.448-1-1v-1h3c.551 0 1 .448 1 1h2c0-1.654-1.346-3-3-3v-2h-2v2h-3v3c0 1.654 1.346 3 3 3h2c.551 0 1 .448 1 1v1h-3c-.551 0-1-.448-1-1h-2c0 1.654 1.346 3 3 3v2h-4.637c-2.135-1.718-3.363-4.247-3.363-7 0-4.963 4.038-9 9-9zm-7.835 28c-2.282 0-4.426-1.116-5.734-2.985l-4.062-5.804c-.242-.344-.369-.749-.369-1.17 0-1.125.916-2.041 2.042-2.041h.438c.639 0 1.25.306 1.633.816l3.887 5.185c.94 1.252 2.435 1.999 4 1.999h1.972c.01 0 .02.003.03.003h.002l6.337-.002h.003c.801 0 1.554.313 2.121.879l.827.827 1.414-1.414-.827-.827c-.945-.944-2.2-1.465-3.534-1.465-.001 0-.003 0-.005 0h-1.341v-.001h-5.028c-.79-.008-1.532-.317-2.093-.876-.566-.567-.878-1.322-.878-2.124 0-.552.449-1 1-1h13.184c.99 0 1.949.29 2.773.84l1.74 1.16h3.303v8zm24.835-10h2v2h2v-2h2v12h-2v-8h-2v8h-2zm-40-22v-1c0-.551-.449-1-1-1h-2c-1.654 0-3-1.346-3-3v-3h3v-2h2v2c1.654 0 3 1.346 3 3h-2c0-.551-.449-1-1-1h-3v1c0 .551.449 1 1 1h2c1.654 0 3 1.346 3 3v3h-3v2h-2v-2c-1.654 0-3-1.346-3-3h2c0 .551.449 1 1 1zm-14-1.645c0 6.421 5.224 11.645 11.645 11.645h.711c6.42 0 11.644-5.224 11.644-11.645 0-2.401-.728-4.71-2.105-6.678l-4.787-6.839 3.182-9.547-5.826-1.457-1.588 3.176-1.402-2.104-7.837 1.307 3.242 8.645-4.774 6.819c-1.377 1.969-2.105 4.278-2.105 6.678zm10.526-21.262 2.598 3.896 2.412-4.824 2.174.543-2.431 7.292h-6.586l-2.33-6.213zm-2.005 8.907h6.959l4.777 6.824c1.14 1.63 1.743 3.543 1.743 5.531 0 5.318-4.327 9.645-9.645 9.645h-.711c-5.317 0-9.644-4.327-9.644-9.645 0-1.989.603-3.901 1.744-5.531zm-4.521 36c0 7.72 6.28 14 14 14h1v-2.58l-.954-.545c-3.729-2.131-6.046-6.123-6.046-10.419v-1.456h4l-8-10.667-8 10.667h4zm4-8.333 4 5.333h-2v3.456c0 4.507 2.186 8.728 5.791 11.34-5.565-1.039-9.791-5.934-9.791-11.796v-3h-2zm19-39.667h-1v2.581l.954.544c3.729 2.131 6.046 6.124 6.046 10.419v1.456h-4l8 10.667 8-10.667h-4v-1c0-7.72-6.28-14-14-14zm10 22.333-4-5.333h2v-3.456c0-4.506-2.187-8.727-5.792-11.34 5.566 1.04 9.792 5.934 9.792 11.796v3h2z" fill="url(#SVGID_1_)"/></svg>